<?xml version="1.0" encoding="utf-8"?>
<svg version="1.1" xmlns:xlink="http://www.w3.org/1999/xlink" width="49px" height="49px" xmlns="http://www.w3.org/2000/svg">
  <defs>
    <mask fill="white" id="clip4">
      <path d="M 0 24.5  C 0 10.9690246582031  10.9690246582031 0  24.5 0  C 38.0309753417969 0  49 10.9690246582031  49 24.5  C 49 38.0309753417969  38.0309753417969 49  24.5 49  C 10.9690246582031 49  0 38.0309753417969  0 24.5  Z " fill-rule="evenodd" />
    </mask>
  </defs>
  <g transform="matrix(1 0 0 1 -523 -512 )">
    <path d="M 0 24.5  C 0 10.9690246582031  10.9690246582031 0  24.5 0  C 38.0309753417969 0  49 10.9690246582031  49 24.5  C 49 38.0309753417969  38.0309753417969 49  24.5 49  C 10.9690246582031 49  0 38.0309753417969  0 24.5  Z " fill-rule="nonzero" fill="#ffffff" stroke="none" transform="matrix(1 0 0 1 523 512 )" />
    <path d="M 0 24.5  C 0 10.9690246582031  10.9690246582031 0  24.5 0  C 38.0309753417969 0  49 10.9690246582031  49 24.5  C 49 38.0309753417969  38.0309753417969 49  24.5 49  C 10.9690246582031 49  0 38.0309753417969  0 24.5  Z " stroke-width="2" stroke="#707070" fill="none" transform="matrix(1 0 0 1 523 512 )" mask="url(#clip4)" />
  </g>
</svg>